{
  "source": "C:\\Users\\Peter\\Desktop\\stuff\\MIUN\\quantitative_research\\video_compression\\videos\\HEVC_CLASS_B\\ParkScene_1920x1080_24.y4m",
  "output": "C:\\Users\\Peter\\Desktop\\stuff\\MIUN\\quantitative_research\\video_compression\\compressed_videos\\HEVC_CLASS_B\\h264\\3\\ParkScene_1920x1080_24_h264.mp4",
  "codec": "h264",
  "ok": "Input #0, yuv4mpegpipe, from 'C:\\Users\\Peter\\Desktop\\stuff\\MIUN\\quantitative_research\\video_compression\\videos\\HEVC_CLASS_B\\ParkScene_1920x1080_24.y4m':\n  Duration: 00:00:10.00, start: 0.000000, bitrate: 597198 kb/s\n  Stream #0:0: Video: rawvideo (I420 / 0x30323449), yuv420p(progressive), 1920x1080, 24 fps, 24 tbr, 24 tbn\n[out#0/mp4 @ 00000220718c9880] Codec AVOption b:a (set bitrate (in bits/s)) has not been used for any stream. The most likely reason is either wrong type (e.g. a video option with no video streams) or that it is a private option of some decoder which was not actually used for any stream.\nStream mapping:\n  Stream #0:0 -> #0:0 (rawvideo (native) -> h264 (libx264))\nPress [q] to stop, [?] for help\n[libx264 @ 00000220718cc8c0] using cpu capabilities: MMX2 SSE2Fast SSSE3 SSE4.2 AVX FMA3 BMI2 AVX2\n[libx264 @ 00000220718cc8c0] profile High, level 5.0, 4:2:0, 8-bit\n[libx264 @ 00000220718cc8c0] 264 - core 165 r3222 b35605a - H.264/MPEG-4 AVC codec - Copyleft 2003-2025 - http://www.videolan.org/x264.html - options: cabac=1 ref=5 deblock=1:0:0 analyse=0x3:0x113 me=hex subme=8 psy=1 psy_rd=1.00:0.00 mixed_ref=1 me_range=16 chroma_me=1 trellis=2 8x8dct=1 cqm=0 deadzone=21,11 fast_pskip=1 chroma_qp_offset=-2 threads=18 lookahead_threads=3 sliced_threads=0 nr=0 decimate=1 interlaced=0 bluray_compat=0 constrained_intra=0 bframes=3 b_pyramid=2 b_adapt=1 b_bias=0 direct=3 weightb=1 open_gop=0 weightp=2 keyint=250 keyint_min=24 scenecut=40 intra_refresh=0 rc_lookahead=50 rc=cbr mbtree=1 bitrate=3000 ratetol=1.0 qcomp=0.60 qpmin=0 qpmax=69 qpstep=4 vbv_maxrate=3000 vbv_bufsize=3000 nal_hrd=none filler=0 ip_ratio=1.40 aq=1:1.00\nOutput #0, mp4, to 'C:\\Users\\Peter\\Desktop\\stuff\\MIUN\\quantitative_research\\video_compression\\compressed_videos\\HEVC_CLASS_B\\h264\\3\\ParkScene_1920x1080_24_h264.mp4':\n  Metadata:\n    encoder         : Lavf62.3.100\n  Stream #0:0: Video: h264 (avc1 / 0x31637661), yuv420p(tv, progressive), 1920x1080, q=2-31, 3000 kb/s, 24 fps, 12288 tbn\n    Metadata:\n      encoder         : Lavc62.11.100 libx264\n    Side data:\n      cpb: bitrate max/min/avg: 3000000/0/3000000 buffer size: 3000000 vbv_delay: N/A\nframe=    0 fps=0.0 q=0.0 size=       0KiB time=N/A bitrate=N/A speed=N/A elapsed=0:00:00.51    \nframe=    0 fps=0.0 q=0.0 size=       0KiB time=N/A bitrate=N/A speed=N/A elapsed=0:00:01.03    \nframe=    0 fps=0.0 q=0.0 size=       0KiB time=N/A bitrate=N/A speed=N/A elapsed=0:00:01.54    \nframe=   12 fps=5.8 q=34.0 size=       0KiB time=00:00:00.41 bitrate=   0.9kbits/s speed=0.202x elapsed=0:00:02.06    \nframe=   28 fps= 11 q=34.0 size=     256KiB time=00:00:01.08 bitrate=1936.2kbits/s speed=0.42x elapsed=0:00:02.57    \nframe=   37 fps= 12 q=34.0 size=     256KiB time=00:00:01.45 bitrate=1438.3kbits/s speed=0.471x elapsed=0:00:03.09    \nframe=   52 fps= 14 q=34.0 size=     512KiB time=00:00:02.04 bitrate=2054.5kbits/s speed=0.562x elapsed=0:00:03.63    \nframe=   65 fps= 16 q=34.0 size=     512KiB time=00:00:02.62 bitrate=1598.0kbits/s speed=0.632x elapsed=0:00:04.15    \nframe=   73 fps= 16 q=34.0 size=     768KiB time=00:00:02.95 bitrate=2126.8kbits/s speed=0.634x elapsed=0:00:04.66    \nframe=   85 fps= 16 q=34.0 size=     768KiB time=00:00:03.45 bitrate=1819.3kbits/s speed=0.666x elapsed=0:00:05.19    \nframe=  103 fps= 18 q=34.0 size=    1024KiB time=00:00:04.16 bitrate=2013.4kbits/s speed=0.729x elapsed=0:00:05.71    \nframe=  106 fps= 17 q=34.0 size=    1024KiB time=00:00:04.29 bitrate=1954.7kbits/s speed=0.689x elapsed=0:00:06.23    \nframe=  124 fps= 18 q=34.0 size=    1280KiB time=00:00:05.08 bitrate=2062.8kbits/s speed=0.753x elapsed=0:00:06.75    \nframe=  134 fps= 18 q=33.0 size=    1280KiB time=00:00:05.50 bitrate=1906.6kbits/s speed=0.755x elapsed=0:00:07.28    \nframe=  149 fps= 19 q=33.0 size=    1536KiB time=00:00:06.12 bitrate=2054.4kbits/s speed=0.785x elapsed=0:00:07.80    \nframe=  157 fps= 19 q=33.0 size=    1536KiB time=00:00:06.45 bitrate=1948.4kbits/s speed=0.775x elapsed=0:00:08.32    \nframe=  169 fps= 19 q=33.0 size=    1792KiB time=00:00:06.95 bitrate=2109.8kbits/s speed=0.786x elapsed=0:00:08.85    \nframe=  181 fps= 19 q=33.0 size=    1792KiB time=00:00:07.45 bitrate=1968.3kbits/s speed=0.796x elapsed=0:00:09.37    \nframe=  191 fps= 19 q=33.0 size=    2048KiB time=00:00:07.87 bitrate=2130.5kbits/s speed=0.796x elapsed=0:00:09.89    \nframe=  201 fps= 19 q=33.0 size=    2048KiB time=00:00:08.29 bitrate=2023.4kbits/s speed=0.796x elapsed=0:00:10.41    \nframe=  215 fps= 20 q=32.0 size=    2304KiB time=00:00:08.87 bitrate=2126.7kbits/s speed=0.812x elapsed=0:00:10.93    \nframe=  230 fps= 20 q=-1.0 size=    2560KiB time=00:00:09.45 bitrate=2217.3kbits/s speed=0.826x elapsed=0:00:11.45    \n[mp4 @ 00000220718c9980] Starting second pass: moving the moov atom to the beginning of the file\n[out#0/mp4 @ 00000220718c9880] video:2754KiB audio:0KiB subtitle:0KiB other streams:0KiB global headers:0KiB muxing overhead: 0.133457%\nframe=  240 fps= 20 q=-1.0 Lsize=    2758KiB time=00:00:09.91 bitrate=2278.3kbits/s speed=0.843x elapsed=0:00:11.75    \n[libx264 @ 00000220718cc8c0] frame I:1     Avg QP:30.80  size:113584\n[libx264 @ 00000220718cc8c0] frame P:60    Avg QP:31.41  size: 30377\n[libx264 @ 00000220718cc8c0] frame B:179   Avg QP:37.43  size:  4935\n[libx264 @ 00000220718cc8c0] consecutive B-frames:  0.4%  0.0%  1.2% 98.3%\n[libx264 @ 00000220718cc8c0] mb I  I16..4: 21.1% 67.1% 11.8%\n[libx264 @ 00000220718cc8c0] mb P  I16..4:  0.2%  1.3%  0.2%  P16..4: 38.9% 13.9%  8.0%  0.0%  0.0%    skip:37.5%\n[libx264 @ 00000220718cc8c0] mb B  I16..4:  0.0%  0.1%  0.0%  B16..8: 45.0%  1.8%  0.3%  direct: 0.6%  skip:52.3%  L0:40.4% L1:58.3% BI: 1.3%\n[libx264 @ 00000220718cc8c0] 8x8 transform intra:72.0% inter:57.5%\n[libx264 @ 00000220718cc8c0] direct mvs  spatial:94.4% temporal:5.6%\n[libx264 @ 00000220718cc8c0] coded y,uvDC,uvAC intra: 67.5% 54.6% 27.4% inter: 6.2% 4.6% 0.5%\n[libx264 @ 00000220718cc8c0] i16 v,h,dc,p: 30% 18%  4% 47%\n[libx264 @ 00000220718cc8c0] i8 v,h,dc,ddl,ddr,vr,hd,vl,hu: 11%  6%  3% 11% 16% 15% 14% 12% 12%\n[libx264 @ 00000220718cc8c0] i4 v,h,dc,ddl,ddr,vr,hd,vl,hu: 10%  6%  4% 11% 15% 14% 15% 11% 15%\n[libx264 @ 00000220718cc8c0] i8c dc,h,v,p: 44% 24% 18% 14%\n[libx264 @ 00000220718cc8c0] Weighted P-Frames: Y:0.0% UV:0.0%\n[libx264 @ 00000220718cc8c0] ref P L0: 64.5% 16.6% 12.8%  3.2%  2.9%\n[libx264 @ 00000220718cc8c0] ref B L0: 93.5%  5.0%  1.2%  0.3%\n[libx264 @ 00000220718cc8c0] ref B L1: 97.7%  2.3%\n[libx264 @ 00000220718cc8c0] kb/s:2255.70\n",
  "seconds": 11.99277138710022,
  "probe_out": {}
}